<svg width="25" height="24" viewBox="0 0 25 24" fill="none" xmlns="http://www.w3.org/2000/svg">
<path fill-rule="evenodd" clip-rule="evenodd" d="M1.28003 2.838C1.28003 2.35053 1.47368 1.88303 1.81837 1.53834C2.16306 1.19365 2.63056 1 3.11803 1H21.44C21.6816 0.999608 21.9209 1.04687 22.1442 1.13907C22.3675 1.23127 22.5704 1.36661 22.7413 1.53734C22.9122 1.70807 23.0478 1.91083 23.1402 2.13401C23.2326 2.3572 23.2802 2.59643 23.28 2.838V21.16C23.2803 21.4016 23.2329 21.6409 23.1406 21.8642C23.0483 22.0875 22.9129 22.2904 22.742 22.4613C22.5712 22.6322 22.3684 22.7678 22.1452 22.8602C21.9219 22.9526 21.6827 23.0001 21.441 23H3.11803C2.87658 23 2.63749 22.9524 2.41443 22.86C2.19136 22.7676 1.9887 22.6321 1.81801 22.4613C1.64733 22.2905 1.51196 22.0878 1.41965 21.8647C1.32734 21.6416 1.2799 21.4025 1.28003 21.161V2.838ZM9.98803 9.388H12.967V10.884C13.397 10.024 14.497 9.25 16.15 9.25C19.319 9.25 20.07 10.963 20.07 14.106V19.928H16.863V14.822C16.863 13.032 16.433 12.022 15.341 12.022C13.826 12.022 13.196 13.111 13.196 14.822V19.928H9.98803V9.388ZM4.48803 19.791H7.69603V9.25H4.48803V19.79V19.791ZM8.15503 5.812C8.16108 6.08667 8.1122 6.35979 8.01127 6.61532C7.91034 6.87084 7.75938 7.10364 7.56726 7.30003C7.37514 7.49643 7.14573 7.65248 6.89248 7.75901C6.63924 7.86554 6.36727 7.92042 6.09253 7.92042C5.81779 7.92042 5.54582 7.86554 5.29257 7.75901C5.03933 7.65248 4.80992 7.49643 4.6178 7.30003C4.42568 7.10364 4.27472 6.87084 4.17379 6.61532C4.07286 6.35979 4.02398 6.08667 4.03003 5.812C4.0419 5.27286 4.26441 4.75979 4.64991 4.38269C5.03542 4.00558 5.55325 3.79442 6.09253 3.79442C6.63181 3.79442 7.14964 4.00558 7.53514 4.38269C7.92064 4.75979 8.14316 5.27286 8.15503 5.812V5.812Z" fill="#4DA1B9"/>
</svg>
