<svg width="24" height="24" viewBox="0 0 24 24" fill="none" xmlns="http://www.w3.org/2000/svg">
<path d="M1.71997 6C1.71997 5.46957 1.93068 4.96086 2.30576 4.58579C2.68083 4.21071 3.18954 4 3.71997 4H19.72C20.2504 4 20.7591 4.21071 21.1342 4.58579C21.5093 4.96086 21.72 5.46957 21.72 6V18C21.72 18.5304 21.5093 19.0391 21.1342 19.4142C20.7591 19.7893 20.2504 20 19.72 20H3.71997C3.18954 20 2.68083 19.7893 2.30576 19.4142C1.93068 19.0391 1.71997 18.5304 1.71997 18V6Z" stroke="#4DA1B9" stroke-width="2" stroke-linecap="round" stroke-linejoin="round"/>
<path d="M1.71997 8L9.22097 14.001C9.93026 14.5685 10.8116 14.8777 11.72 14.8777C12.6284 14.8777 13.5097 14.5685 14.219 14.001L21.72 8" stroke="#4DA1B9" stroke-width="2" stroke-linejoin="round"/>
</svg>
